<svg width="202" height="65" viewBox="0 0 202 65" fill="none" xmlns="http://www.w3.org/2000/svg">
<path d="M20.0658 32.5029C20.0658 39.3592 25.6468 44.9342 32.5029 44.9342C34.3514 44.9342 36.1006 44.5187 37.6802 43.7934C37.5689 43.378 37.5047 42.9511 37.5047 42.5006C37.5047 39.8095 39.681 37.6276 42.3718 37.6276C42.8457 37.6276 43.2962 37.6977 43.7231 37.8206C44.4954 36.206 44.94 34.4042 44.94 32.5029C44.94 25.6408 39.359 20.0658 32.5029 20.0658C25.6468 20.0658 20.0658 25.641 20.0658 32.5029ZM48.0173 32.5029C48.0173 35.0594 47.3796 37.4696 46.2798 39.599C46.8824 40.4121 47.2451 41.4124 47.2451 42.5006C47.2451 45.1916 45.0629 47.3736 42.372 47.3736C41.2605 47.3736 40.2368 46.9934 39.4178 46.3674C37.3294 47.4087 34.9893 48.0113 32.5031 48.0113C23.9504 48.0113 16.9889 41.0556 16.9889 32.5029C16.9889 23.9444 23.9504 16.9887 32.5031 16.9887C41.0558 16.9887 48.0173 23.9444 48.0173 32.5029Z" fill="#0891B2"/>
<path d="M32.5029 28.6536C34.6206 28.6536 36.3464 30.3794 36.3464 32.5029C36.3464 34.6206 34.6206 36.3464 32.5029 36.3464C30.3794 36.3464 28.6536 34.6206 28.6536 32.5029C28.6536 30.3794 30.3794 28.6536 32.5029 28.6536Z" fill="#ECFEFF"/>
<path d="M32.5029 36.3464C34.6206 36.3464 36.3464 34.6206 36.3464 32.5029C36.3464 30.3794 34.6206 28.6536 32.5029 28.6536C30.3794 28.6536 28.6536 30.3794 28.6536 32.5029C28.6536 34.6206 30.3794 36.3464 32.5029 36.3464ZM32.5029 25.5765C36.3172 25.5765 39.4235 28.6828 39.4235 32.5029C39.4235 36.3172 36.3172 39.4235 32.5029 39.4235C28.6828 39.4235 25.5765 36.3172 25.5765 32.5029C25.5765 28.683 28.683 25.5765 32.5029 25.5765Z" fill="#0891B2"/>
<path d="M15.9651 20.0658C13.4906 20.0658 11.4781 18.0533 11.4781 15.5788C11.4781 13.1044 13.4906 11.0919 15.9651 11.0919C18.4395 11.0919 20.4519 13.1044 20.4519 15.5788C20.4519 18.0533 18.4395 20.0658 15.9651 20.0658Z" fill="#ECFEFF"/>
<path d="M15.9651 20.0658C18.4395 20.0658 20.4519 18.0533 20.4519 15.5788C20.4519 13.1044 18.4395 11.0919 15.9651 11.0919C13.4906 11.0919 11.4781 13.1044 11.4781 15.5788C11.4781 18.0533 13.4906 20.0658 15.9651 20.0658ZM32.5029 7.5C46.2856 7.5 57.5 18.7146 57.5 32.5029C57.5 46.2856 46.2854 57.5 32.5029 57.5C18.7146 57.5002 7.5 46.2856 7.5 32.5029C7.5 28.25 8.57062 24.2486 10.4542 20.7444C9.18471 19.3873 8.40098 17.5738 8.40098 15.5788C8.40098 11.4078 11.794 8.01476 15.9651 8.01476C18.0301 8.01476 19.902 8.84543 21.2652 10.1911C24.6465 8.47694 28.4606 7.5 32.5029 7.5ZM54.4231 32.5029C54.4231 20.411 44.5892 10.5771 32.5031 10.5771C29.0926 10.5771 25.8575 11.361 22.9793 12.7592C23.3303 13.6308 23.5291 14.5844 23.5291 15.579C23.5291 19.7501 20.1361 23.1431 15.9651 23.1431C14.9061 23.1431 13.9058 22.9209 12.9873 22.5288C11.4545 25.5241 10.5771 28.9113 10.5771 32.5031C10.5771 44.5892 20.411 54.4231 32.5029 54.4231C44.589 54.4231 54.4231 44.589 54.4231 32.5029Z" fill="#0891B2"/>
<path d="M69.875 41.8375C68.575 41.8375 67.3417 41.6208 66.175 41.1875C65.025 40.7375 64.1333 40.1625 63.5 39.4625L64.075 38.5125C64.675 39.1292 65.4917 39.6542 66.525 40.0875C67.575 40.5042 68.6833 40.7125 69.85 40.7125C71.0167 40.7125 71.9667 40.5625 72.7 40.2625C73.45 39.9458 74 39.5292 74.35 39.0125C74.7167 38.4958 74.9 37.9208 74.9 37.2875C74.9 36.5375 74.7 35.9375 74.3 35.4875C73.9 35.0375 73.375 34.6792 72.725 34.4125C72.075 34.1458 71.3667 33.9208 70.6 33.7375C69.8333 33.5542 69.0583 33.3625 68.275 33.1625C67.4917 32.9458 66.775 32.6708 66.125 32.3375C65.475 32.0042 64.95 31.5542 64.55 30.9875C64.1667 30.4042 63.975 29.6542 63.975 28.7375C63.975 27.9042 64.1917 27.1375 64.625 26.4375C65.0583 25.7375 65.7333 25.1708 66.65 24.7375C67.5667 24.3042 68.7417 24.0875 70.175 24.0875C71.1417 24.0875 72.0917 24.2292 73.025 24.5125C73.975 24.7958 74.7833 25.1792 75.45 25.6625L74.975 26.6875C74.2417 26.1875 73.45 25.8208 72.6 25.5875C71.7667 25.3375 70.9583 25.2125 70.175 25.2125C69.0583 25.2125 68.1333 25.3708 67.4 25.6875C66.6667 26.0042 66.125 26.4292 65.775 26.9625C65.425 27.4792 65.25 28.0625 65.25 28.7125C65.25 29.4625 65.4417 30.0625 65.825 30.5125C66.225 30.9625 66.75 31.3208 67.4 31.5875C68.05 31.8542 68.7667 32.0792 69.55 32.2625C70.3333 32.4458 71.1083 32.6458 71.875 32.8625C72.6417 33.0625 73.35 33.3292 74 33.6625C74.65 33.9958 75.175 34.4458 75.575 35.0125C75.975 35.5792 76.175 36.3125 76.175 37.2125C76.175 38.0292 75.95 38.7958 75.5 39.5125C75.05 40.2125 74.3583 40.7792 73.425 41.2125C72.5083 41.6292 71.325 41.8375 69.875 41.8375Z" fill="white"/>
<path d="M118.947 41.8375C117.647 41.8375 116.414 41.6208 115.247 41.1875C114.097 40.7375 113.206 40.1625 112.572 39.4625L113.147 38.5125C113.747 39.1292 114.564 39.6542 115.597 40.0875C116.647 40.5042 117.756 40.7125 118.922 40.7125C120.089 40.7125 121.039 40.5625 121.772 40.2625C122.522 39.9458 123.072 39.5292 123.422 39.0125C123.789 38.4958 123.972 37.9208 123.972 37.2875C123.972 36.5375 123.772 35.9375 123.372 35.4875C122.972 35.0375 122.447 34.6792 121.797 34.4125C121.147 34.1458 120.439 33.9208 119.672 33.7375C118.906 33.5542 118.131 33.3625 117.347 33.1625C116.564 32.9458 115.847 32.6708 115.197 32.3375C114.547 32.0042 114.022 31.5542 113.622 30.9875C113.239 30.4042 113.047 29.6542 113.047 28.7375C113.047 27.9042 113.264 27.1375 113.697 26.4375C114.131 25.7375 114.806 25.1708 115.722 24.7375C116.639 24.3042 117.814 24.0875 119.247 24.0875C120.214 24.0875 121.164 24.2292 122.097 24.5125C123.047 24.7958 123.856 25.1792 124.522 25.6625L124.047 26.6875C123.314 26.1875 122.522 25.8208 121.672 25.5875C120.839 25.3375 120.031 25.2125 119.247 25.2125C118.131 25.2125 117.206 25.3708 116.472 25.6875C115.739 26.0042 115.197 26.4292 114.847 26.9625C114.497 27.4792 114.322 28.0625 114.322 28.7125C114.322 29.4625 114.514 30.0625 114.897 30.5125C115.297 30.9625 115.822 31.3208 116.472 31.5875C117.122 31.8542 117.839 32.0792 118.622 32.2625C119.406 32.4458 120.181 32.6458 120.947 32.8625C121.714 33.0625 122.422 33.3292 123.072 33.6625C123.722 33.9958 124.247 34.4458 124.647 35.0125C125.047 35.5792 125.247 36.3125 125.247 37.2125C125.247 38.0292 125.022 38.7958 124.572 39.5125C124.122 40.2125 123.431 40.7792 122.497 41.2125C121.581 41.6292 120.397 41.8375 118.947 41.8375Z" fill="white"/>
<path fill-rule="evenodd" clip-rule="evenodd" d="M81.2594 40.8625C81.876 41.4958 82.7594 41.8125 83.9094 41.8125C84.4094 41.8125 84.8927 41.7375 85.3594 41.5875C85.8427 41.4375 86.251 41.2042 86.5844 40.8875L86.0594 40.0125C85.526 40.4958 84.851 40.7375 84.0344 40.7375C83.251 40.7375 82.651 40.5125 82.2344 40.0625C81.8177 39.6125 81.6094 38.9708 81.6094 38.1375V29.7375H85.7594V28.6625H81.6094V25.8125H80.3594V28.6625H77.9594V29.7375H80.3594V38.2625C80.3594 39.3625 80.6594 40.2292 81.2594 40.8625ZM80.3594 29.7375H81.6094V28.6625H80.3594V29.7375Z" fill="white"/>
<path d="M80.3594 29.7375H81.6094V28.6625H80.3594V29.7375Z" fill="white"/>
<path fill-rule="evenodd" clip-rule="evenodd" d="M98.2953 39.3721V41.7125H99.4953V33.4375C99.4953 31.8208 99.062 30.6042 98.1953 29.7875C97.3286 28.9708 96.087 28.5625 94.4703 28.5625C93.4703 28.5625 92.512 28.7292 91.5953 29.0625C90.6786 29.3792 89.8953 29.8292 89.2453 30.4125L89.8703 31.3125C90.4203 30.8292 91.0786 30.4375 91.8453 30.1375C92.6286 29.8208 93.4703 29.6625 94.3703 29.6625C95.637 29.6625 96.5953 29.9792 97.2453 30.6125C97.912 31.2458 98.2453 32.1708 98.2453 33.3875V34.4375H93.7703C92.5703 34.4375 91.612 34.6125 90.8953 34.9625C90.1786 35.2958 89.662 35.7375 89.3453 36.2875C89.0453 36.8208 88.8953 37.4208 88.8953 38.0875C88.8953 38.8208 89.0786 39.4708 89.4453 40.0375C89.8286 40.6042 90.3703 41.0458 91.0703 41.3625C91.787 41.6625 92.6286 41.8125 93.5953 41.8125C94.8953 41.8125 95.962 41.5375 96.7953 40.9875C97.4384 40.5588 97.9384 40.0203 98.2953 39.3721ZM98.2953 38.7375V39.3721C98.284 39.3935 98.3069 39.351 98.2953 39.3721V38.7375L98.2453 37.8625V35.4125H93.7953C92.4453 35.4125 91.4953 35.6625 90.9453 36.1625C90.412 36.6625 90.1453 37.2875 90.1453 38.0375C90.1453 38.8708 90.462 39.5375 91.0953 40.0375C91.7286 40.5375 92.6203 40.7875 93.7703 40.7875C94.8703 40.7875 95.7953 40.5375 96.5453 40.0375C97.312 39.5375 97.8786 38.8125 98.2453 37.8625L98.2953 38.7375Z" fill="white"/>
<path fill-rule="evenodd" clip-rule="evenodd" d="M104.646 28.6625V41.7125H105.896V34.9125C105.896 33.2958 106.304 32.0375 107.121 31.1375C107.937 30.2208 109.071 29.7625 110.521 29.7625C110.571 29.7625 110.621 29.7708 110.671 29.7875H110.821V28.5625C109.521 28.5625 108.437 28.8458 107.571 29.4125C106.796 29.9191 106.215 30.6321 105.84 31.5251L105.846 28.6625H104.646ZM105.84 31.5251C105.838 31.5295 105.842 31.5206 105.84 31.5251V31.5251Z" fill="white"/>
<path fill-rule="evenodd" clip-rule="evenodd" d="M130.982 40.9625C131.998 41.5292 133.165 41.8125 134.482 41.8125C135.482 41.8125 136.407 41.6375 137.257 41.2875C138.123 40.9208 138.84 40.3875 139.407 39.6875L138.682 38.8625C138.182 39.4792 137.565 39.9375 136.832 40.2375C136.115 40.5375 135.34 40.6875 134.507 40.6875C133.44 40.6875 132.49 40.4625 131.657 40.0125C130.823 39.5458 130.165 38.9042 129.682 38.0875C129.252 37.3198 129.02 36.4532 128.986 35.4875H140.207V35.3125C140.223 35.2458 140.232 35.1875 140.232 35.1375C140.232 33.8375 139.957 32.6958 139.407 31.7125C138.873 30.7125 138.132 29.9375 137.182 29.3875C136.248 28.8375 135.19 28.5625 134.007 28.5625C132.823 28.5625 131.757 28.8458 130.807 29.4125C129.857 29.9792 129.107 30.7625 128.557 31.7625C128.023 32.7458 127.757 33.8875 127.757 35.1875C127.757 36.4708 128.04 37.6125 128.607 38.6125C129.19 39.6125 129.982 40.3958 130.982 40.9625ZM128.999 34.5125H139.022C138.974 33.6858 138.76 32.9358 138.382 32.2625C137.948 31.4458 137.357 30.8125 136.607 30.3625C135.857 29.8958 134.99 29.6625 134.007 29.6625C133.04 29.6625 132.173 29.8958 131.407 30.3625C130.657 30.8125 130.065 31.4458 129.632 32.2625C129.27 32.931 129.059 33.681 128.999 34.5125ZM128.982 35.0125V35.2375C128.982 35.3208 128.983 35.4035 128.986 35.4854L128.986 35.4875H128.682V34.5125H128.999C128.987 34.676 128.982 34.8427 128.982 35.0125Z" fill="white"/>
<path d="M128.682 34.5125V35.4875H128.986L128.986 35.4854C128.983 35.4035 128.982 35.3208 128.982 35.2375V35.0125C128.982 34.8427 128.987 34.676 128.999 34.5125H128.682Z" fill="white"/>
<path fill-rule="evenodd" clip-rule="evenodd" d="M145.899 40.9625C146.915 41.5292 148.082 41.8125 149.399 41.8125C150.399 41.8125 151.324 41.6375 152.174 41.2875C153.04 40.9208 153.757 40.3875 154.324 39.6875L153.599 38.8625C153.099 39.4792 152.482 39.9375 151.749 40.2375C151.032 40.5375 150.257 40.6875 149.424 40.6875C148.357 40.6875 147.407 40.4625 146.574 40.0125C145.74 39.5458 145.082 38.9042 144.599 38.0875C144.169 37.3198 143.937 36.4532 143.903 35.4875H155.124V35.3125C155.14 35.2458 155.149 35.1875 155.149 35.1375C155.149 33.8375 154.874 32.6958 154.324 31.7125C153.79 30.7125 153.049 29.9375 152.099 29.3875C151.165 28.8375 150.107 28.5625 148.924 28.5625C147.74 28.5625 146.674 28.8458 145.724 29.4125C144.774 29.9792 144.024 30.7625 143.474 31.7625C142.94 32.7458 142.674 33.8875 142.674 35.1875C142.674 36.4708 142.957 37.6125 143.524 38.6125C144.107 39.6125 144.899 40.3958 145.899 40.9625ZM143.916 34.5125H153.939C153.891 33.6858 153.677 32.9358 153.299 32.2625C152.865 31.4458 152.274 30.8125 151.524 30.3625C150.774 29.8958 149.907 29.6625 148.924 29.6625C147.957 29.6625 147.09 29.8958 146.324 30.3625C145.574 30.8125 144.982 31.4458 144.549 32.2625C144.187 32.931 143.976 33.681 143.916 34.5125ZM143.899 35.0125V35.2375C143.899 35.3208 143.9 35.4035 143.903 35.4854L143.903 35.4875H143.599V34.5125H143.916C143.904 34.676 143.899 34.8427 143.899 35.0125Z" fill="white"/>
<path d="M143.599 34.5125V35.4875H143.903L143.903 35.4854C143.9 35.4035 143.899 35.3208 143.899 35.2375V35.0125C143.899 34.8427 143.904 34.676 143.916 34.5125H143.599Z" fill="white"/>
<path fill-rule="evenodd" clip-rule="evenodd" d="M159.991 36.5375L159.966 38.1125L160.266 37.8383V41.7125H159.016V23.1625H160.266V36.2864L159.991 36.5375ZM164.601 33.9341L170.216 28.6625H168.616L160.266 36.2864V37.8383L163.657 34.7393L169.216 41.7125H170.766L164.601 33.9341Z" fill="white"/>
<path d="M159.991 36.5375L159.966 38.1125L160.266 37.8383V36.2864L159.991 36.5375Z" fill="white"/>
<path fill-rule="evenodd" clip-rule="evenodd" d="M174.976 40.9625C175.992 41.5292 177.159 41.8125 178.476 41.8125C179.476 41.8125 180.401 41.6375 181.251 41.2875C182.117 40.9208 182.834 40.3875 183.401 39.6875L182.676 38.8625C182.176 39.4792 181.559 39.9375 180.826 40.2375C180.109 40.5375 179.334 40.6875 178.501 40.6875C177.434 40.6875 176.484 40.4625 175.651 40.0125C174.817 39.5458 174.159 38.9042 173.676 38.0875C173.246 37.3198 173.014 36.4532 172.98 35.4875H184.201V35.3125C184.217 35.2458 184.226 35.1875 184.226 35.1375C184.226 33.8375 183.951 32.6958 183.401 31.7125C182.867 30.7125 182.126 29.9375 181.176 29.3875C180.242 28.8375 179.184 28.5625 178.001 28.5625C176.817 28.5625 175.751 28.8458 174.801 29.4125C173.851 29.9792 173.101 30.7625 172.551 31.7625C172.017 32.7458 171.751 33.8875 171.751 35.1875C171.751 36.4708 172.034 37.6125 172.601 38.6125C173.184 39.6125 173.976 40.3958 174.976 40.9625ZM172.993 34.5125H183.016C182.968 33.6858 182.755 32.9358 182.376 32.2625C181.942 31.4458 181.351 30.8125 180.601 30.3625C179.851 29.8958 178.984 29.6625 178.001 29.6625C177.034 29.6625 176.167 29.8958 175.401 30.3625C174.651 30.8125 174.059 31.4458 173.626 32.2625C173.264 32.931 173.053 33.681 172.993 34.5125ZM172.976 35.0125V35.2375C172.976 35.3208 172.977 35.4035 172.98 35.4854L172.98 35.4875H172.676V34.5125H172.993C172.982 34.676 172.976 34.8427 172.976 35.0125Z" fill="white"/>
<path d="M172.676 34.5125V35.4875H172.98L172.98 35.4854C172.977 35.4035 172.976 35.3208 172.976 35.2375V35.0125C172.976 34.8427 172.982 34.676 172.993 34.5125H172.676Z" fill="white"/>
<path fill-rule="evenodd" clip-rule="evenodd" d="M188.093 28.6625V41.7125H189.343V34.9125C189.343 33.2958 189.751 32.0375 190.568 31.1375C191.384 30.2208 192.518 29.7625 193.968 29.7625C194.018 29.7625 194.068 29.7708 194.118 29.7875H194.268V28.5625C192.968 28.5625 191.884 28.8458 191.018 29.4125C190.243 29.9191 189.668 30.6189 189.293 31.5118V28.6625H188.093ZM189.293 32.2375V31.5118C189.291 31.5162 189.289 31.5206 189.287 31.5251C189.245 31.6267 189.205 31.7309 189.168 31.8375L189.293 32.2375Z" fill="white"/>
<path d="M189.168 31.8375L189.293 32.2375V31.5118L189.287 31.5251C189.245 31.6267 189.205 31.7309 189.168 31.8375Z" fill="white"/>
</svg>
